HIERARCHY
ROOT Hips
{
	OFFSET 0.00000 0.00000 0.00000
	CHANNELS 6 Xposition Yposition Zposition Zrotation Yrotation Xrotation 
	JOINT LHipJoint
	{
		OFFSET 0 0 0
		CHANNELS 3 Zrotation Yrotation Xrotation
		JOINT LeftUpLeg
		{
			OFFSET 1.57358 -1.76629 0.73362
			CHANNELS 3 Zrotation Yrotation Xrotation
			JOINT LeftLeg
			{
				OFFSET 2.40600 -6.61045 0.00000
				CHANNELS 3 Zrotation Yrotation Xrotation
				JOINT LeftFoot
				{
					OFFSET 2.66168 -7.31291 0.00000
					CHANNELS 3 Zrotation Yrotation Xrotation
					JOINT LeftToeBase
					{
						OFFSET 0.20870 -0.57341 2.12506
						CHANNELS 3 Zrotation Yrotation Xrotation
						End Site
						{
							OFFSET 0.00000 -0.00000 1.10557
						}
					}
				}
			}
		}
	}
	JOINT RHipJoint
	{
		OFFSET 0 0 0
		CHANNELS 3 Zrotation Yrotation Xrotation
		JOINT RightUpLeg
		{
			OFFSET -1.49299 -1.76629 0.73362
			CHANNELS 3 Zrotation Yrotation Xrotation
			JOINT RightLeg
			{
				OFFSET -2.43663 -6.69460 0.00000
				CHANNELS 3 Zrotation Yrotation Xrotation
				JOINT RightFoot
				{
					OFFSET -2.62959 -7.22474 0.00000
					CHANNELS 3 Zrotation Yrotation Xrotation
					JOINT RightToeBase
					{
						OFFSET -0.25784 -0.70841 2.21862
						CHANNELS 3 Zrotation Yrotation Xrotation
						End Site
						{
							OFFSET -0.00000 -0.00000 1.16452
						}
					}
				}
			}
		}
	}
	JOINT LowerBack
	{
		OFFSET 0 0 0
		CHANNELS 3 Zrotation Yrotation Xrotation
		JOINT Spine
		{
			OFFSET -0.00034 2.12399 -0.25450
			CHANNELS 3 Zrotation Yrotation Xrotation
			JOINT Spine1
			{
				OFFSET 0.05594 2.14379 -0.03318
				CHANNELS 3 Zrotation Yrotation Xrotation
				JOINT Neck
				{
					OFFSET 0 0 0
					CHANNELS 3 Zrotation Yrotation Xrotation
					JOINT Neck1
					{
						OFFSET -0.09835 1.62725 0.24211
						CHANNELS 3 Zrotation Yrotation Xrotation
						JOINT Head
						{
							OFFSET 0.10849 1.66041 -0.22648
							CHANNELS 3 Zrotation Yrotation Xrotation
							End Site
							{
								OFFSET 0.04385 1.68267 -0.10541
							}
						}
					}
				}
				JOINT LeftShoulder
				{
					OFFSET 0 0 0
					CHANNELS 3 Zrotation Yrotation Xrotation
					JOINT LeftArm
					{
						OFFSET 3.29108 0.79398 -0.68179
						CHANNELS 3 Zrotation Yrotation Xrotation
						JOINT LeftForeArm
						{
							OFFSET 5.15310 -0.00000 -0.00000
							CHANNELS 3 Zrotation Yrotation Xrotation
							JOINT LeftHand
							{
								OFFSET 3.75138 -0.00000 -0.00000
								CHANNELS 3 Zrotation Yrotation Xrotation
								JOINT LeftFingerBase
								{
									OFFSET 0 0 0
									CHANNELS 3 Zrotation Yrotation Xrotation
									JOINT LeftHandIndex1
									{
										OFFSET 0.52917 -0.00000 0.00000
										CHANNELS 3 Zrotation Yrotation Xrotation
										End Site
										{
											OFFSET 0.42663 -0.00000 0.00000
										}
									}
								}
								JOINT LThumb
								{
									OFFSET 0 0 0
									CHANNELS 3 Zrotation Yrotation Xrotation
									End Site
									{
										OFFSET 0.43315 -0.00000 0.43315
									}
								}
							}
						}
					}
				}
				JOINT RightShoulder
				{
					OFFSET 0 0 0
					CHANNELS 3 Zrotation Yrotation Xrotation
					JOINT RightArm
					{
						OFFSET -3.07414 1.06285 -0.44338
						CHANNELS 3 Zrotation Yrotation Xrotation
						JOINT RightForeArm
						{
							OFFSET -5.29613 -0.00000 0.00000
							CHANNELS 3 Zrotation Yrotation Xrotation
							JOINT RightHand
							{
								OFFSET -3.76144 -0.00000 -0.00000
								CHANNELS 3 Zrotation Yrotation Xrotation
								JOINT RightFingerBase
								{
									OFFSET 0 0 0
									CHANNELS 3 Zrotation Yrotation Xrotation
									JOINT RightHandIndex1
									{
										OFFSET -0.74732 -0.00000 0.00000
										CHANNELS 3 Zrotation Yrotation Xrotation
										End Site
										{
											OFFSET -0.60251 -0.00000 0.00000
										}
									}
								}
								JOINT RThumb
								{
									OFFSET 0 0 0
									CHANNELS 3 Zrotation Yrotation Xrotation
									End Site
									{
										OFFSET -0.61171 -0.00000 0.61171
									}
								}
							}
						}
					}
				}
			}
		}
	}
}
MOTION
Frames: 7
Frame Time: .0083333
1.703 17.7026 -27.9063 0 0 0 0 0 0 -21 0 0 0 0 0 0 0 0 0 0 0 0 0 0 21 0 0 0 0 0 0 0 0 0 0 0 0 0 0 0 0 0 0 0 0 0 0 -16 0 0 21 0 0 11 0 0 0 -8 0 0 0 0 0 0 0 0 0 0 0 0 0 0 0 0 0 0 0 0 8 0 0 0 0 0 0 0 0 0 0 0 0 0 0 0 0 0
1.7030 17.7026 -27.9063 2.9390 -3.8693 0.0479 0.0000 0.0000 0.0000 -25.3946 -3.5017 -12.6678 1.2772 7.1623 20.1970 0.0966 -2.5967 -5.5455 0.0872 1.9048 5.2428 0.0000 0.0000 0.0000 17.6127 3.1016 -11.2076 -10.8704 -17.8711 62.3599 -0.0080 -7.5737 5.4818 -0.0006 -0.1621 0.4454 -3.1692 1.4331 6.1192 1.1142 1.7281 0.7599 2.7833 0.8999 -2.7750 -8.5536 -3.3143 -14.7462 4.7056 -3.5108 17.5667 2.5810 -1.7766 8.1148 0.0000 0.0000 0.0000 -90.8659 0.1029 15.1063 10.9985 -18.2859 -1.7754 -0.0000 -0.0000 15.1003 15.9248 29.8157 8.0745 -7.1250 0.0000 -0.0000 -17.5543 59.9072 -6.5070 0.0000 0.0000 0.0000 87.3977 1.4190 13.4066 -16.2549 25.8650 -3.7565 0.0000 0.0000 8.9193 -13.9888 10.7636 -2.6638 7.1250 -0.0000 -0.0000 9.2262 -18.9724 5.8008
1.7110 17.7054 -27.7673 3.0574 -3.8573 -0.0709 0.0000 0.0000 0.0000 -25.6394 -3.5213 -11.9160 1.2643 7.1273 20.0931 0.1158 -2.3436 -6.0441 0.1080 2.1194 5.8358 0.0000 0.0000 0.0000 17.2594 3.1704 -12.5553 -11.2410 -18.0510 63.5618 0.0715 -8.2665 4.2050 -0.0051 -0.4593 1.2620 -3.2099 1.3790 6.3648 1.0670 1.6444 0.7950 2.7603 0.8594 -2.8697 -8.5985 -3.3591 -15.3575 4.6678 -3.5294 18.7813 2.5780 -1.7978 8.6357 0.0000 0.0000 0.0000 -90.6587 -0.0899 15.5191 11.1989 -18.5926 -1.8389 -0.0000 -0.0000 15.0507 15.6967 30.1349 8.0306 -7.1250 0.0000 -0.0000 -18.0299 60.1574 -6.7984 0.0000 0.0000 0.0000 87.5259 1.5029 12.5748 -15.5685 24.9321 -3.4621 0.0000 0.0000 10.5902 -15.2577 12.7852 -3.4544 7.1250 -0.0000 -0.0000 8.3155 -16.8312 5.6114
1.7183 17.7073 -27.6327 3.0105 -3.7015 -0.0796 0.0000 0.0000 0.0000 -25.6854 -3.6792 -11.4855 1.3019 7.2284 20.3938 0.1407 -2.2701 -6.6614 0.1146 2.1827 6.0110 0.0000 0.0000 0.0000 17.1237 3.1322 -13.9558 -11.5339 -18.1866 64.5037 0.1381 -8.7705 2.9869 -0.0096 -0.6320 1.7367 -3.0771 1.1929 6.4844 1.0944 1.4027 0.7404 2.7333 0.7401 -2.9729 -8.4801 -3.0879 -15.0892 4.6961 -3.1927 17.9288 2.6039 -1.6218 8.2726 -0.0000 -0.0000 0.0000 -90.5289 -0.2599 15.5968 11.2288 -18.6382 -1.8484 -0.0000 -0.0000 14.7649 15.8600 28.5257 7.7264 -7.1250 0.0000 -0.0000 -16.7399 58.6576 -5.6913 -0.0000 -0.0000 0.0000 87.6012 1.3478 12.3671 -15.3064 24.5712 -3.3523 0.0000 0.0000 11.1952 -15.6204 13.0039 -3.5999 7.1250 -0.0000 -0.0000 8.0651 -16.5802 5.4834
1.7262 17.6982 -27.5016 3.0013 -3.5258 -0.0447 0.0000 0.0000 0.0000 -25.7922 -3.7266 -11.1730 1.3394 7.3277 20.6901 0.1663 -2.3302 -7.2478 0.0797 1.8208 5.0107 0.0000 0.0000 0.0000 16.9462 3.0806 -15.4092 -11.8067 -18.3078 65.3750 0.1843 -9.0018 1.8781 -0.0037 -0.3921 1.0773 -3.0552 0.9748 6.4307 1.1716 1.1176 0.7086 2.8278 0.5986 -2.9566 -8.5986 -2.7221 -14.8533 4.9675 -2.7336 17.7810 2.7698 -1.3870 8.1524 -0.0000 0.0000 0.0000 -90.5135 -0.5016 15.3930 11.3167 -18.7721 -1.8766 -0.0000 -0.0000 15.3691 140.2781 -81.4113 -140.5954 -7.1250 0.0000 -0.0000 -155.4672 -53.7139 174.4861 -0.0000 0.0000 0.0000 87.5799 1.0075 13.1461 -15.8341 25.2951 -3.5748 0.0000 0.0000 9.7008 -14.3968 9.5005 -2.4262 7.1250 -0.0000 -0.0000 8.9704 -20.2336 5.3800
1.7352 17.6813 -27.3601 2.9993 -3.5921 -0.1384 0.0000 0.0000 0.0000 -25.9043 -3.7903 -10.7282 1.3951 7.4723 21.1222 0.2013 -2.1652 -8.0000 0.0709 1.7178 4.7264 0.0000 0.0000 0.0000 16.7676 3.2287 -16.5964 -12.0286 -18.4027 66.0795 0.2243 -9.1749 0.6684 -0.0186 -0.8808 2.4208 -3.0327 0.8879 6.4193 1.2424 1.0063 0.7646 2.8991 0.5413 -2.8851 -8.4749 -2.7500 -14.6982 4.6419 -2.7427 17.5179 2.6364 -1.4139 8.0321 0.0000 0.0000 0.0000 -90.4538 -0.7833 15.2387 11.2502 -18.6707 -1.8552 -0.0000 -0.0000 15.4415 92.4569 -85.5348 -92.4644 -7.1250 0.0000 -0.0000 -149.6519 -59.4275 168.6692 0.0000 0.0000 0.0000 87.5791 0.7372 12.7665 -15.5899 24.9614 -3.4711 0.0000 0.0000 10.8291 -14.8858 11.7018 -3.0859 7.1250 -0.0000 -0.0000 8.5814 -17.9627 5.5797
1.7408 17.6631 -27.2186 3.0585 -3.7973 -0.2839 0.0000 0.0000 0.0000 -26.0657 -3.6648 -10.3125 1.4541 7.6221 21.5719 0.2356 -1.9812 -8.6932 0.0643 1.6364 4.5019 0.0000 0.0000 0.0000 16.5306 3.5146 -17.7012 -12.2024 -18.4749 66.6288 0.2470 -9.1729 -0.4986 -0.0651 -1.6467 4.5303 -3.1834 0.8745 6.6371 1.3458 0.9740 0.6428 3.0916 0.5338 -3.1352 -8.4483 -2.7684 -14.3299 4.3038 -2.7413 17.6192 2.5212 -1.4501 7.9964 0.0000 0.0000 0.0000 -90.4431 -0.5438 15.9499 11.2394 -18.6543 -1.8518 -0.0000 -0.0000 13.6489 81.1273 79.4596 80.9775 -7.1250 0.0000 -0.0000 -156.6813 -61.3175 170.4432 0.0000 0.0000 0.0000 87.5498 0.2421 12.7366 -15.6650 25.0643 -3.5028 0.0000 0.0000 10.7095 -14.1524 8.9325 -2.2421 7.1250 -0.0000 -0.0000 9.1628 -20.8232 5.3751
